<svg xmlns="http://www.w3.org/2000/svg" version="1.1" xmlns:xlink="http://www.w3.org/1999/xlink" xmlns:svgjs="http://svgjs.dev/svgjs" width="2000" height="1500" viewBox="0 0 2000 1500"><rect width="2000" height="1500" fill="#efefef"></rect><g transform="matrix(0.75,0,0,0.75,249.090909090909,282.7536437246963)"><svg viewBox="0 0 396 247" data-background-color="#efefef" preserveAspectRatio="xMidYMid meet" height="1247" width="2000" xmlns="http://www.w3.org/2000/svg" xmlns:xlink="http://www.w3.org/1999/xlink"><g id="tight-bounds" transform="matrix(1,0,0,1,0.2400000000000091,-0.09999999999999432)"><svg viewBox="0 0 395.52 247.2" height="247.2" width="395.52"><g><svg></svg></g><g><svg viewBox="0 0 395.52 247.2" height="247.2" width="395.52"><g transform="matrix(1,0,0,1,146.36394171428572,47.215199999999996)"><svg viewBox="0 0 102.79211657142856 152.7696" height="152.7696" width="102.79211657142856"><g><svg viewBox="0 0 102.79211657142856 152.7696" height="152.7696" width="102.79211657142856"><g><svg viewBox="0 0 102.79211657142856 152.7696" height="152.7696" width="102.79211657142856"><g><svg viewBox="0 0 102.79211657142856 152.7696" height="152.7696" width="102.79211657142856"><g id="textblocktransform"><svg viewBox="0 0 102.79211657142856 152.7696" height="152.7696" width="102.79211657142856" id="textblock"><g><svg viewBox="0 0 102.79211657142856 152.7696" height="152.7696" width="102.79211657142856"><g transform="matrix(1,0,0,1,0,0)"><svg width="102.79211657142856" viewBox="3.3 -35 23.55 35" height="152.7696" data-palette-color="#d94e28"><path d="M3.3 0L3.3-35 8.45-35 22.3-9.4 22.3-35 26.85-35 26.85 0 22.6 0 7.85-27.05 7.85 0 3.3 0Z" opacity="1" transform="matrix(1,0,0,1,0,0)" fill="#d94e28" class="wordmark-text-0" data-fill-palette-color="primary" id="text-0"></path></svg></g></svg></g></svg></g></svg></g></svg></g></svg></g></svg></g><path d="M328.665 41.215L328.665 0 81.465 0 81.465 247.2 328.665 247.2 328.665 205.985 314.888 205.985 314.888 233.423 95.242 233.423 95.242 13.777 314.888 13.777 314.888 41.215Z" fill="#d94e28" stroke="transparent" data-fill-palette-color="tertiary"></path></svg></g><defs></defs></svg><rect width="395.52" height="247.2" fill="none" stroke="none" visibility="hidden"></rect></g></svg></g></svg>